<?xml version="1.0" encoding="UTF-8"?>
<svg width="1600px" height="300px" viewBox="0 0 1600 300" version="1.1" xmlns="http://www.w3.org/2000/svg" xmlns:xlink="http://www.w3.org/1999/xlink" style="background: #FFFFFF;">
    <!-- Generator: Sketch 45 (43475) - http://www.bohemiancoding.com/sketch -->
    <title>rate-app - baner - outline</title>
    <desc>Created with Sketch.</desc>
    <defs></defs>
    <g id="Page-1" stroke="none" stroke-width="1" fill="none" fill-rule="evenodd">
        <g id="rate-app---baner---outline">
            <g id="Group-3" transform="translate(663.000000, 80.000000)">
                <g id="Group-2">
                    <g id="Group">
                        <path d="M12.132,115.256 C11.7479981,114.631997 11.2080035,114.122002 10.512,113.726 C9.81599652,113.329998 9.03600432,113.132 8.172,113.132 C7.78799808,113.132 7.40400192,113.174 7.02,113.258 C6.63599808,113.342 6.2940015,113.473999 5.994,113.654 C5.6939985,113.834001 5.4540009,114.061999 5.274,114.338 C5.0939991,114.614001 5.004,114.955998 5.004,115.364 C5.004,116.084004 5.32799676,116.617998 5.976,116.966 C6.62400324,117.314002 7.59599352,117.631999 8.892,117.92 C9.70800408,118.112001 10.4639965,118.339999 11.16,118.604 C11.8560035,118.868001 12.4619974,119.197998 12.978,119.594 C13.4940026,119.990002 13.8959986,120.463997 14.184,121.016 C14.4720014,121.568003 14.616,122.215996 14.616,122.96 C14.616,123.968005 14.4240019,124.819997 14.04,125.516 C13.6559981,126.212003 13.1460032,126.781998 12.51,127.226 C11.8739968,127.670002 11.1480041,127.987999 10.332,128.18 C9.51599592,128.372001 8.67600432,128.468 7.812,128.468 C6.51599352,128.468 5.25000618,128.216003 4.014,127.712 C2.77799382,127.207997 1.75200408,126.440005 0.936,125.408 L3.348,123.356 C3.80400228,124.028003 4.43399598,124.591998 5.238,125.048 C6.04200402,125.504002 6.9239952,125.732 7.884,125.732 C8.31600216,125.732 8.72999802,125.69 9.126,125.606 C9.52200198,125.522 9.88199838,125.384001 10.206,125.192 C10.5300016,124.999999 10.787999,124.748002 10.98,124.436 C11.172001,124.123998 11.268,123.728002 11.268,123.248 C11.268,122.455996 10.8900038,121.868002 10.134,121.484 C9.37799622,121.099998 8.26800732,120.740002 6.804,120.404 C6.22799712,120.259999 5.64600294,120.086001 5.058,119.882 C4.46999706,119.677999 3.9360024,119.396002 3.456,119.036 C2.9759976,118.675998 2.5860015,118.226003 2.286,117.686 C1.9859985,117.145997 1.836,116.480004 1.836,115.688 C1.836,114.775995 2.02199814,113.990003 2.394,113.33 C2.76600186,112.669997 3.251997,112.130002 3.852,111.71 C4.452003,111.289998 5.13599616,110.978001 5.904,110.774 C6.67200384,110.569999 7.46399592,110.468 8.28,110.468 C9.50400612,110.468 10.6859943,110.707998 11.826,111.188 C12.9660057,111.668002 13.8479969,112.363995 14.472,113.276 L12.132,115.256 Z M24.377143,128 L20.993143,128 L20.993143,110.936 L24.377143,110.936 L24.377143,128 Z M24.953143,104.78 C24.953143,105.404003 24.7311452,105.919998 24.287143,106.328 C23.8431408,106.736002 23.3091461,106.94 22.685143,106.94 C22.0611399,106.94 21.5331451,106.730002 21.101143,106.31 C20.6691408,105.889998 20.453143,105.380003 20.453143,104.78 C20.453143,104.155997 20.6691408,103.634002 21.101143,103.214 C21.5331451,102.793998 22.0611399,102.584 22.685143,102.584 C23.3091461,102.584 23.8431408,102.793998 24.287143,103.214 C24.7311452,103.634002 24.953143,104.155997 24.953143,104.78 Z M35.6502859,113.744 C36.0822881,112.831995 36.7722812,112.058003 37.7202859,111.422 C38.6682907,110.785997 39.7902795,110.468 41.0862859,110.468 C42.2382917,110.468 43.2762813,110.731997 44.2002859,111.26 C45.1242906,111.788003 45.8502833,112.663994 46.3782859,113.888 C46.9542888,112.783994 47.7582808,111.938003 48.7902859,111.35 C49.8222911,110.761997 50.9502798,110.468 52.1742859,110.468 C53.2782915,110.468 54.226282,110.653998 55.0182859,111.026 C55.8102899,111.398002 56.4702833,111.895997 56.9982859,112.52 C57.5262886,113.144003 57.9162847,113.875996 58.1682859,114.716 C58.4202872,115.556004 58.5462859,116.455995 58.5462859,117.416 L58.5462859,128 L55.1622859,128 L55.1622859,118.532 C55.1622859,117.835997 55.1022865,117.176003 54.9822859,116.552 C54.8622853,115.927997 54.6582874,115.376002 54.3702859,114.896 C54.0822845,114.415998 53.6982883,114.032001 53.2182859,113.744 C52.7382835,113.455999 52.1262897,113.312 51.3822859,113.312 C50.6142821,113.312 49.9542887,113.473998 49.4022859,113.798 C48.8502832,114.122002 48.4002877,114.541997 48.0522859,115.058 C47.7042842,115.574003 47.4522867,116.155997 47.2962859,116.804 C47.1402852,117.452003 47.0622859,118.111997 47.0622859,118.784 L47.0622859,128 L43.6782859,128 L43.6782859,117.848 C43.6782859,117.175997 43.6182865,116.564003 43.4982859,116.012 C43.3782853,115.459997 43.1742874,114.986002 42.8862859,114.59 C42.5982845,114.193998 42.2262882,113.882001 41.7702859,113.654 C41.3142837,113.425999 40.7502893,113.312 40.0782859,113.312 C38.8302797,113.312 37.7922901,113.821995 36.9642859,114.842 C36.1362818,115.862005 35.7222859,117.223991 35.7222859,118.928 L35.7222859,128 L32.3382859,128 L32.3382859,114.608 C32.3382859,114.151998 32.3262861,113.564004 32.3022859,112.844 C32.2782858,112.123996 32.2422862,111.488003 32.1942859,110.936 L35.3982859,110.936 C35.4462862,111.368002 35.4822858,111.853997 35.5062859,112.394 C35.5302861,112.934003 35.5422859,113.383998 35.5422859,113.744 L35.6502859,113.744 Z M69.7114289,136.64 L66.3274289,136.64 L66.3274289,110.936 L69.6394289,110.936 L69.6394289,113.6 L69.7474289,113.6 C70.2994317,112.687995 71.1094236,111.938003 72.1774289,111.35 C73.2454343,110.761997 74.4874218,110.468 75.9034289,110.468 C77.1754353,110.468 78.3334237,110.695998 79.3774289,111.152 C80.4214341,111.608002 81.3214251,112.243996 82.0774289,113.06 C82.8334327,113.876004 83.4154269,114.829995 83.8234289,115.922 C84.231431,117.014005 84.4354289,118.183994 84.4354289,119.432 C84.4354289,120.680006 84.231431,121.855994 83.8234289,122.96 C83.4154269,124.064006 82.8394326,125.023996 82.0954289,125.84 C81.3514252,126.656004 80.4514342,127.297998 79.3954289,127.766 C78.3394236,128.234002 77.1514355,128.468 75.8314289,128.468 C74.6074228,128.468 73.4554343,128.204003 72.3754289,127.676 C71.2954235,127.147997 70.443432,126.404005 69.8194289,125.444 L69.7114289,125.444 L69.7114289,136.64 Z M80.9434289,119.432 C80.9434289,118.639996 80.8234301,117.872004 80.5834289,117.128 C80.3434277,116.383996 79.9834313,115.724003 79.5034289,115.148 C79.0234265,114.571997 78.4294325,114.116002 77.7214289,113.78 C77.0134254,113.443998 76.1914336,113.276 75.2554289,113.276 C74.3914246,113.276 73.6054325,113.443998 72.8974289,113.78 C72.1894254,114.116002 71.5834314,114.571997 71.0794289,115.148 C70.5754264,115.724003 70.1854303,116.383996 69.9094289,117.128 C69.6334275,117.872004 69.4954289,118.651996 69.4954289,119.468 C69.4954289,120.284004 69.6334275,121.063996 69.9094289,121.808 C70.1854303,122.552004 70.5754264,123.205997 71.0794289,123.77 C71.5834314,124.334003 72.1894254,124.783998 72.8974289,125.12 C73.6054325,125.456002 74.3914246,125.624 75.2554289,125.624 C76.1914336,125.624 77.0134254,125.450002 77.7214289,125.102 C78.4294325,124.753998 79.0234265,124.292003 79.5034289,123.716 C79.9834313,123.139997 80.3434277,122.480004 80.5834289,121.736 C80.8234301,120.991996 80.9434289,120.224004 80.9434289,119.432 Z M94.6645719,128 L91.2805719,128 L91.2805719,100.784 L94.6645719,100.784 L94.6645719,128 Z M115.117715,117.956 C115.093715,117.283997 114.979716,116.654003 114.775715,116.066 C114.571714,115.477997 114.271717,114.968002 113.875715,114.536 C113.479713,114.103998 112.987718,113.762001 112.399715,113.51 C111.811712,113.257999 111.121719,113.132 110.329715,113.132 C109.609711,113.132 108.931718,113.257999 108.295715,113.51 C107.659712,113.762001 107.107717,114.103998 106.639715,114.536 C106.171713,114.968002 105.787716,115.477997 105.487715,116.066 C105.187713,116.654003 105.013715,117.283997 104.965715,117.956 L115.117715,117.956 Z M118.537715,119.324 L118.537715,119.9 C118.537715,120.092001 118.525715,120.283999 118.501715,120.476 L104.965715,120.476 C104.989715,121.196004 105.151713,121.873997 105.451715,122.51 C105.751716,123.146003 106.153712,123.697998 106.657715,124.166 C107.161717,124.634002 107.743712,124.999999 108.403715,125.264 C109.063718,125.528001 109.765711,125.66 110.509715,125.66 C111.661721,125.66 112.657711,125.408003 113.497715,124.904 C114.337719,124.399997 114.997712,123.788004 115.477715,123.068 L117.853715,124.976 C116.94171,126.176006 115.867721,127.057997 114.631715,127.622 C113.395709,128.186003 112.021722,128.468 110.509715,128.468 C109.213708,128.468 108.01372,128.252002 106.909715,127.82 C105.805709,127.387998 104.857719,126.782004 104.065715,126.002 C103.273711,125.221996 102.649717,124.280006 102.193715,123.176 C101.737713,122.071994 101.509715,120.848007 101.509715,119.504 C101.509715,118.183993 101.731713,116.966006 102.175715,115.85 C102.619717,114.733994 103.237711,113.780004 104.029715,112.988 C104.821719,112.195996 105.757709,111.578002 106.837715,111.134 C107.91772,110.689998 109.081709,110.468 110.329715,110.468 C111.577721,110.468 112.71171,110.671998 113.731715,111.08 C114.75172,111.488002 115.615711,112.075996 116.323715,112.844 C117.031718,113.612004 117.577713,114.541995 117.961715,115.634 C118.345717,116.726005 118.537715,117.955993 118.537715,119.324 Z M136.368001,114.608 C136.368001,114.151998 136.356001,113.564004 136.332001,112.844 C136.308001,112.123996 136.272001,111.488003 136.224001,110.936 L139.428001,110.936 C139.476001,111.368002 139.512001,111.865997 139.536001,112.43 C139.560001,112.994003 139.572001,113.455998 139.572001,113.816 L139.680001,113.816 C140.160003,112.807995 140.861996,111.998003 141.786001,111.386 C142.710005,110.773997 143.747995,110.468 144.900001,110.468 C145.428003,110.468 145.871999,110.516 146.232001,110.612 L146.088001,113.744 C145.607998,113.623999 145.092004,113.564 144.540001,113.564 C143.723997,113.564 143.016004,113.713999 142.416001,114.014 C141.815998,114.314001 141.318003,114.715997 140.922001,115.22 C140.525999,115.724003 140.232002,116.305997 140.040001,116.966 C139.848,117.626003 139.752001,118.315996 139.752001,119.036 L139.752001,128 L136.368001,128 L136.368001,114.608 Z M163.301144,117.956 C163.277144,117.283997 163.163145,116.654003 162.959144,116.066 C162.755143,115.477997 162.455146,114.968002 162.059144,114.536 C161.663142,114.103998 161.171147,113.762001 160.583144,113.51 C159.995141,113.257999 159.305148,113.132 158.513144,113.132 C157.79314,113.132 157.115147,113.257999 156.479144,113.51 C155.843141,113.762001 155.291146,114.103998 154.823144,114.536 C154.355141,114.968002 153.971145,115.477997 153.671144,116.066 C153.371142,116.654003 153.197144,117.283997 153.149144,117.956 L163.301144,117.956 Z M166.721144,119.324 L166.721144,119.9 C166.721144,120.092001 166.709144,120.283999 166.685144,120.476 L153.149144,120.476 C153.173144,121.196004 153.335142,121.873997 153.635144,122.51 C153.935145,123.146003 154.337141,123.697998 154.841144,124.166 C155.345146,124.634002 155.92714,124.999999 156.587144,125.264 C157.247147,125.528001 157.94914,125.66 158.693144,125.66 C159.84515,125.66 160.84114,125.408003 161.681144,124.904 C162.521148,124.399997 163.181141,123.788004 163.661144,123.068 L166.037144,124.976 C165.125139,126.176006 164.05115,127.057997 162.815144,127.622 C161.579138,128.186003 160.205151,128.468 158.693144,128.468 C157.397137,128.468 156.197149,128.252002 155.093144,127.82 C153.989138,127.387998 153.041148,126.782004 152.249144,126.002 C151.45714,125.221996 150.833146,124.280006 150.377144,123.176 C149.921142,122.071994 149.693144,120.848007 149.693144,119.504 C149.693144,118.183993 149.915142,116.966006 150.359144,115.85 C150.803146,114.733994 151.42114,113.780004 152.213144,112.988 C153.005148,112.195996 153.941138,111.578002 155.021144,111.134 C156.101149,110.689998 157.265138,110.468 158.513144,110.468 C159.76115,110.468 160.895139,110.671998 161.915144,111.08 C162.935149,111.488002 163.79914,112.075996 164.507144,112.844 C165.215147,113.612004 165.761142,114.541995 166.145144,115.634 C166.529146,116.726005 166.721144,117.955993 166.721144,119.324 Z M186.994287,125.444 C186.370284,126.404005 185.512292,127.147997 184.420287,127.676 C183.328281,128.204003 182.170293,128.468 180.946287,128.468 C179.62628,128.468 178.438292,128.234002 177.382287,127.766 C176.326281,127.297998 175.42629,126.656004 174.682287,125.84 C173.938283,125.023996 173.362289,124.064006 172.954287,122.96 C172.546285,121.855994 172.342287,120.680006 172.342287,119.432 C172.342287,118.183994 172.546285,117.014005 172.954287,115.922 C173.362289,114.829995 173.944283,113.876004 174.700287,113.06 C175.456291,112.243996 176.362281,111.608002 177.418287,111.152 C178.474292,110.695998 179.63828,110.468 180.910287,110.468 C182.302294,110.468 183.532281,110.761997 184.600287,111.35 C185.668292,111.938003 186.490284,112.687995 187.066287,113.6 L187.174287,113.6 L187.174287,110.936 L190.450287,110.936 L190.450287,136.64 L187.066287,136.64 L187.066287,125.444 L186.994287,125.444 Z M175.870287,119.432 C175.870287,120.224004 175.990286,120.991996 176.230287,121.736 C176.470288,122.480004 176.830284,123.139997 177.310287,123.716 C177.790289,124.292003 178.378283,124.753998 179.074287,125.102 C179.77029,125.450002 180.586282,125.624 181.522287,125.624 C182.386291,125.624 183.172283,125.456002 183.880287,125.12 C184.58829,124.783998 185.194284,124.334003 185.698287,123.77 C186.202289,123.205997 186.592285,122.552004 186.868287,121.808 C187.144288,121.063996 187.282287,120.284004 187.282287,119.468 C187.282287,118.651996 187.144288,117.872004 186.868287,117.128 C186.592285,116.383996 186.202289,115.724003 185.698287,115.148 C185.194284,114.571997 184.58829,114.116002 183.880287,113.78 C183.172283,113.443998 182.386291,113.276 181.522287,113.276 C180.586282,113.276 179.77029,113.443998 179.074287,113.78 C178.378283,114.116002 177.790289,114.571997 177.310287,115.148 C176.830284,115.724003 176.470288,116.383996 176.230287,117.128 C175.990286,117.872004 175.870287,118.639996 175.870287,119.432 Z M210.36343,128 C210.315429,127.567998 210.27943,127.082003 210.25543,126.542 C210.23143,126.001997 210.21943,125.552002 210.21943,125.192 L210.14743,125.192 C209.715428,126.104005 208.989435,126.877997 207.96943,127.514 C206.949425,128.150003 205.815436,128.468 204.56743,128.468 C203.463424,128.468 202.509434,128.288002 201.70543,127.928 C200.901426,127.567998 200.241432,127.070003 199.72543,126.434 C199.209427,125.797997 198.825431,125.060004 198.57343,124.22 C198.321428,123.379996 198.19543,122.480005 198.19543,121.52 L198.19543,110.936 L201.57943,110.936 L201.57943,120.368 C201.57943,121.064003 201.633429,121.729997 201.74143,122.366 C201.84943,123.002003 202.047428,123.559998 202.33543,124.04 C202.623431,124.520002 203.019427,124.903999 203.52343,125.192 C204.027432,125.480001 204.675426,125.624 205.46743,125.624 C206.835437,125.624 207.939426,125.114005 208.77943,124.094 C209.619434,123.073995 210.03943,121.712009 210.03943,120.008 L210.03943,110.936 L213.42343,110.936 L213.42343,124.328 C213.42343,124.784002 213.43543,125.371996 213.45943,126.092 C213.48343,126.812004 213.519429,127.447997 213.56743,128 L210.36343,128 Z M233.840573,117.956 C233.816573,117.283997 233.702574,116.654003 233.498573,116.066 C233.294572,115.477997 232.994575,114.968002 232.598573,114.536 C232.202571,114.103998 231.710576,113.762001 231.122573,113.51 C230.53457,113.257999 229.844577,113.132 229.052573,113.132 C228.332569,113.132 227.654576,113.257999 227.018573,113.51 C226.38257,113.762001 225.830575,114.103998 225.362573,114.536 C224.89457,114.968002 224.510574,115.477997 224.210573,116.066 C223.910571,116.654003 223.736573,117.283997 223.688573,117.956 L233.840573,117.956 Z M237.260573,119.324 L237.260573,119.9 C237.260573,120.092001 237.248573,120.283999 237.224573,120.476 L223.688573,120.476 C223.712573,121.196004 223.874571,121.873997 224.174573,122.51 C224.474574,123.146003 224.87657,123.697998 225.380573,124.166 C225.884575,124.634002 226.466569,124.999999 227.126573,125.264 C227.786576,125.528001 228.488569,125.66 229.232573,125.66 C230.384578,125.66 231.380569,125.408003 232.220573,124.904 C233.060577,124.399997 233.72057,123.788004 234.200573,123.068 L236.576573,124.976 C235.664568,126.176006 234.590579,127.057997 233.354573,127.622 C232.118567,128.186003 230.74458,128.468 229.232573,128.468 C227.936566,128.468 226.736578,128.252002 225.632573,127.82 C224.528567,127.387998 223.580577,126.782004 222.788573,126.002 C221.996569,125.221996 221.372575,124.280006 220.916573,123.176 C220.46057,122.071994 220.232573,120.848007 220.232573,119.504 C220.232573,118.183993 220.45457,116.966006 220.898573,115.85 C221.342575,114.733994 221.960569,113.780004 222.752573,112.988 C223.544577,112.195996 224.480567,111.578002 225.560573,111.134 C226.640578,110.689998 227.804566,110.468 229.052573,110.468 C230.300579,110.468 231.434568,110.671998 232.454573,111.08 C233.474578,111.488002 234.338569,112.075996 235.046573,112.844 C235.754576,113.612004 236.300571,114.541995 236.684573,115.634 C237.068575,116.726005 237.260573,117.955993 237.260573,119.324 Z M253.249716,115.256 C252.865714,114.631997 252.325719,114.122002 251.629716,113.726 C250.933712,113.329998 250.15372,113.132 249.289716,113.132 C248.905714,113.132 248.521718,113.174 248.137716,113.258 C247.753714,113.342 247.411717,113.473999 247.111716,113.654 C246.811714,113.834001 246.571717,114.061999 246.391716,114.338 C246.211715,114.614001 246.121716,114.955998 246.121716,115.364 C246.121716,116.084004 246.445712,116.617998 247.093716,116.966 C247.741719,117.314002 248.713709,117.631999 250.009716,117.92 C250.82572,118.112001 251.581712,118.339999 252.277716,118.604 C252.973719,118.868001 253.579713,119.197998 254.095716,119.594 C254.611718,119.990002 255.013714,120.463997 255.301716,121.016 C255.589717,121.568003 255.733716,122.215996 255.733716,122.96 C255.733716,123.968005 255.541718,124.819997 255.157716,125.516 C254.773714,126.212003 254.263719,126.781998 253.627716,127.226 C252.991712,127.670002 252.26572,127.987999 251.449716,128.18 C250.633712,128.372001 249.79372,128.468 248.929716,128.468 C247.633709,128.468 246.367722,128.216003 245.131716,127.712 C243.895709,127.207997 242.86972,126.440005 242.053716,125.408 L244.465716,123.356 C244.921718,124.028003 245.551712,124.591998 246.355716,125.048 C247.15972,125.504002 248.041711,125.732 249.001716,125.732 C249.433718,125.732 249.847714,125.69 250.243716,125.606 C250.639718,125.522 250.999714,125.384001 251.323716,125.192 C251.647717,124.999999 251.905715,124.748002 252.097716,124.436 C252.289717,124.123998 252.385716,123.728002 252.385716,123.248 C252.385716,122.455996 252.007719,121.868002 251.251716,121.484 C250.495712,121.099998 249.385723,120.740002 247.921716,120.404 C247.345713,120.259999 246.763719,120.086001 246.175716,119.882 C245.587713,119.677999 245.053718,119.396002 244.573716,119.036 C244.093713,118.675998 243.703717,118.226003 243.403716,117.686 C243.103714,117.145997 242.953716,116.480004 242.953716,115.688 C242.953716,114.775995 243.139714,113.990003 243.511716,113.33 C243.883718,112.669997 244.369713,112.130002 244.969716,111.71 C245.569719,111.289998 246.253712,110.978001 247.021716,110.774 C247.78972,110.569999 248.581712,110.468 249.397716,110.468 C250.621722,110.468 251.80371,110.707998 252.943716,111.188 C254.083721,111.668002 254.965713,112.363995 255.589716,113.276 L253.249716,115.256 Z M270.426859,113.708 L265.890859,113.708 L265.890859,122.6 C265.890859,123.632005 266.082857,124.369998 266.466859,124.814 C266.850861,125.258002 267.462854,125.48 268.302859,125.48 C268.61486,125.48 268.950857,125.444 269.310859,125.372 C269.67086,125.3 269.994857,125.192001 270.282859,125.048 L270.390859,127.82 C269.982857,127.964001 269.532861,128.078 269.040859,128.162 C268.548856,128.246 268.038861,128.288 267.510859,128.288 C265.902851,128.288 264.672863,127.844004 263.820859,126.956 C262.968854,126.067996 262.542859,124.736009 262.542859,122.96 L262.542859,113.708 L259.266859,113.708 L259.266859,110.936 L262.542859,110.936 L262.542859,106.04 L265.890859,106.04 L265.890859,110.936 L270.426859,110.936 L270.426859,113.708 Z M287.033145,114.608 C287.033145,114.151998 287.021145,113.564004 286.997145,112.844 C286.973144,112.123996 286.937145,111.488003 286.889145,110.936 L290.093145,110.936 C290.141145,111.368002 290.177144,111.865997 290.201145,112.43 C290.225145,112.994003 290.237145,113.455998 290.237145,113.816 L290.345145,113.816 C290.825147,112.807995 291.52714,111.998003 292.451145,111.386 C293.375149,110.773997 294.413139,110.468 295.565145,110.468 C296.093147,110.468 296.537143,110.516 296.897145,110.612 L296.753145,113.744 C296.273142,113.623999 295.757147,113.564 295.205145,113.564 C294.389141,113.564 293.681148,113.713999 293.081145,114.014 C292.481142,114.314001 291.983147,114.715997 291.587145,115.22 C291.191143,115.724003 290.897146,116.305997 290.705145,116.966 C290.513144,117.626003 290.417145,118.315996 290.417145,119.036 L290.417145,128 L287.033145,128 L287.033145,114.608 Z M313.966288,117.956 C313.942287,117.283997 313.828289,116.654003 313.624288,116.066 C313.420287,115.477997 313.12029,114.968002 312.724288,114.536 C312.328286,114.103998 311.836291,113.762001 311.248288,113.51 C310.660285,113.257999 309.970292,113.132 309.178288,113.132 C308.458284,113.132 307.780291,113.257999 307.144288,113.51 C306.508284,113.762001 305.95629,114.103998 305.488288,114.536 C305.020285,114.968002 304.636289,115.477997 304.336288,116.066 C304.036286,116.654003 303.862288,117.283997 303.814288,117.956 L313.966288,117.956 Z M317.386288,119.324 L317.386288,119.9 C317.386288,120.092001 317.374288,120.283999 317.350288,120.476 L303.814288,120.476 C303.838288,121.196004 304.000286,121.873997 304.300288,122.51 C304.600289,123.146003 305.002285,123.697998 305.506288,124.166 C306.01029,124.634002 306.592284,124.999999 307.252288,125.264 C307.912291,125.528001 308.614284,125.66 309.358288,125.66 C310.510293,125.66 311.506283,125.408003 312.346288,124.904 C313.186292,124.399997 313.846285,123.788004 314.326288,123.068 L316.702288,124.976 C315.790283,126.176006 314.716294,127.057997 313.480288,127.622 C312.244281,128.186003 310.870295,128.468 309.358288,128.468 C308.062281,128.468 306.862293,128.252002 305.758288,127.82 C304.654282,127.387998 303.706292,126.782004 302.914288,126.002 C302.122284,125.221996 301.49829,124.280006 301.042288,123.176 C300.586285,122.071994 300.358288,120.848007 300.358288,119.504 C300.358288,118.183993 300.580285,116.966006 301.024288,115.85 C301.46829,114.733994 302.086284,113.780004 302.878288,112.988 C303.670292,112.195996 304.606282,111.578002 305.686288,111.134 C306.766293,110.689998 307.930281,110.468 309.178288,110.468 C310.426294,110.468 311.560282,110.671998 312.580288,111.08 C313.600293,111.488002 314.464284,112.075996 315.172288,112.844 C315.880291,113.612004 316.426286,114.541995 316.810288,115.634 C317.194289,116.726005 317.386288,117.955993 317.386288,119.324 Z M332.187431,128 L328.515431,128 L321.567431,110.936 L325.311431,110.936 L330.315431,124.364 L330.387431,124.364 L335.427431,110.936 L339.027431,110.936 L332.187431,128 Z M347.780574,128 L344.396574,128 L344.396574,110.936 L347.780574,110.936 L347.780574,128 Z M348.356574,104.78 C348.356574,105.404003 348.134576,105.919998 347.690574,106.328 C347.246571,106.736002 346.712577,106.94 346.088574,106.94 C345.46457,106.94 344.936576,106.730002 344.504574,106.31 C344.072571,105.889998 343.856574,105.380003 343.856574,104.78 C343.856574,104.155997 344.072571,103.634002 344.504574,103.214 C344.936576,102.793998 345.46457,102.584 346.088574,102.584 C346.712577,102.584 347.246571,102.793998 347.690574,103.214 C348.134576,103.634002 348.356574,104.155997 348.356574,104.78 Z M368.233716,117.956 C368.209716,117.283997 368.095718,116.654003 367.891716,116.066 C367.687715,115.477997 367.387718,114.968002 366.991716,114.536 C366.595715,114.103998 366.103719,113.762001 365.515716,113.51 C364.927714,113.257999 364.23772,113.132 363.445716,113.132 C362.725713,113.132 362.04772,113.257999 361.411716,113.51 C360.775713,113.762001 360.223719,114.103998 359.755716,114.536 C359.287714,114.968002 358.903718,115.477997 358.603716,116.066 C358.303715,116.654003 358.129717,117.283997 358.081716,117.956 L368.233716,117.956 Z M371.653716,119.324 L371.653716,119.9 C371.653716,120.092001 371.641717,120.283999 371.617716,120.476 L358.081716,120.476 C358.105717,121.196004 358.267715,121.873997 358.567716,122.51 C358.867718,123.146003 359.269714,123.697998 359.773716,124.166 C360.277719,124.634002 360.859713,124.999999 361.519716,125.264 C362.17972,125.528001 362.881713,125.66 363.625716,125.66 C364.777722,125.66 365.773712,125.408003 366.613716,124.904 C367.453721,124.399997 368.113714,123.788004 368.593716,123.068 L370.969716,124.976 C370.057712,126.176006 368.983723,127.057997 367.747716,127.622 C366.51171,128.186003 365.137724,128.468 363.625716,128.468 C362.32971,128.468 361.129722,128.252002 360.025716,127.82 C358.921711,127.387998 357.97372,126.782004 357.181716,126.002 C356.389713,125.221996 355.765719,124.280006 355.309716,123.176 C354.853714,122.071994 354.625716,120.848007 354.625716,119.504 C354.625716,118.183993 354.847714,116.966006 355.291716,115.85 C355.735719,114.733994 356.353713,113.780004 357.145716,112.988 C357.93772,112.195996 358.873711,111.578002 359.953716,111.134 C361.033722,110.689998 362.19771,110.468 363.445716,110.468 C364.693723,110.468 365.827711,110.671998 366.847716,111.08 C367.867722,111.488002 368.731713,112.075996 369.439716,112.844 C370.14772,113.612004 370.693715,114.541995 371.077716,115.634 C371.461718,116.726005 371.653716,117.955993 371.653716,119.324 Z M379.686859,110.936 L383.538859,123.968 L383.610859,123.968 L387.678859,110.936 L391.242859,110.936 L395.382859,123.968 L395.454859,123.968 L399.306859,110.936 L402.870859,110.936 L397.218859,128 L393.690859,128 L389.478859,115.184 L389.406859,115.184 L385.230859,128 L381.702859,128 L376.014859,110.936 L379.686859,110.936 Z M417.528002,115.256 C417.144001,114.631997 416.604006,114.122002 415.908002,113.726 C415.211999,113.329998 414.432007,113.132 413.568002,113.132 C413.184001,113.132 412.800004,113.174 412.416002,113.258 C412.032001,113.342 411.690004,113.473999 411.390002,113.654 C411.090001,113.834001 410.850003,114.061999 410.670002,114.338 C410.490002,114.614001 410.400002,114.955998 410.400002,115.364 C410.400002,116.084004 410.723999,116.617998 411.372002,116.966 C412.020006,117.314002 412.991996,117.631999 414.288002,117.92 C415.104007,118.112001 415.859999,118.339999 416.556002,118.604 C417.252006,118.868001 417.858,119.197998 418.374002,119.594 C418.890005,119.990002 419.292001,120.463997 419.580002,121.016 C419.868004,121.568003 420.012002,122.215996 420.012002,122.96 C420.012002,123.968005 419.820004,124.819997 419.436002,125.516 C419.052001,126.212003 418.542006,126.781998 417.906002,127.226 C417.269999,127.670002 416.544007,127.987999 415.728002,128.18 C414.911998,128.372001 414.072007,128.468 413.208002,128.468 C411.911996,128.468 410.646009,128.216003 409.410002,127.712 C408.173996,127.207997 407.148007,126.440005 406.332002,125.408 L408.744002,123.356 C409.200005,124.028003 409.829998,124.591998 410.634002,125.048 C411.438006,125.504002 412.319998,125.732 413.280002,125.732 C413.712005,125.732 414.126,125.69 414.522002,125.606 C414.918004,125.522 415.278001,125.384001 415.602002,125.192 C415.926004,124.999999 416.184001,124.748002 416.376002,124.436 C416.568003,124.123998 416.664002,123.728002 416.664002,123.248 C416.664002,122.455996 416.286006,121.868002 415.530002,121.484 C414.773999,121.099998 413.66401,120.740002 412.200002,120.404 C411.624,120.259999 411.042005,120.086001 410.454002,119.882 C409.865999,119.677999 409.332005,119.396002 408.852002,119.036 C408.372,118.675998 407.982004,118.226003 407.682002,117.686 C407.382001,117.145997 407.232002,116.480004 407.232002,115.688 C407.232002,114.775995 407.418001,113.990003 407.790002,113.33 C408.162004,112.669997 408.647999,112.130002 409.248002,111.71 C409.848005,111.289998 410.531999,110.978001 411.300002,110.774 C412.068006,110.569999 412.859998,110.468 413.676002,110.468 C414.900009,110.468 416.081997,110.707998 417.222002,111.188 C418.362008,111.668002 419.243999,112.363995 419.868002,113.276 L417.528002,115.256 Z" id="simple-request-revie" fill="#657786"></path>
                        <path d="M5.772,21.608 L23.976,21.608 C26.442679,21.608 28.8353217,21.8669974 31.154,22.385 C33.4726783,22.9030026 35.5323243,23.7539941 37.333,24.938 C39.1336757,26.1220059 40.5766612,27.6759904 41.662,29.6 C42.7473388,31.5240096 43.29,33.8673195 43.29,36.63 C43.29,40.4286857 42.2170107,43.5243214 40.071,45.917 C37.9249893,48.3096786 35.0020185,49.9253291 31.302,50.764 L45.288,74 L34.04,74 L21.904,51.8 L15.096,51.8 L15.096,74 L5.772,74 L5.772,21.608 Z M22.718,44.178 C24.0500067,44.178 25.3819933,44.0793343 26.714,43.882 C28.0460067,43.6846657 29.242328,43.3146694 30.303,42.772 C31.363672,42.2293306 32.2393299,41.4523384 32.93,40.441 C33.6206701,39.4296616 33.966,38.1346746 33.966,36.556 C33.966,35.1253262 33.6453365,33.9536712 33.004,33.041 C32.3626635,32.1283288 31.5486716,31.4006694 30.562,30.858 C29.5753284,30.3153306 28.4530063,29.9453343 27.195,29.748 C25.9369937,29.5506657 24.7160059,29.452 23.532,29.452 L15.096,29.452 L15.096,44.178 L22.718,44.178 Z M73.7675775,69.486 L73.5455775,69.486 C72.657573,71.0646746 71.2269207,72.3596616 69.2535775,73.371 C67.2802343,74.3823384 65.0355901,74.888 62.5195775,74.888 C61.0889037,74.888 59.5965853,74.7030018 58.0425775,74.333 C56.4885697,73.9629982 55.0579174,73.3463376 53.7505775,72.483 C52.4432376,71.6196623 51.3579151,70.485007 50.4945775,69.079 C49.6312398,67.672993 49.1995775,65.9340104 49.1995775,63.862 C49.1995775,61.1979867 49.9519033,59.0766746 51.4565775,57.498 C52.9612517,55.9193254 54.8975656,54.7106709 57.2655775,53.872 C59.6335893,53.0333291 62.2605631,52.4783347 65.1465775,52.207 C68.0325919,51.9356653 70.856897,51.8 73.6195775,51.8 L73.6195775,50.912 C73.6195775,48.6919889 72.8179188,47.051672 71.2145775,45.991 C69.6112361,44.930328 67.6995886,44.4 65.4795775,44.4 C63.6049014,44.4 61.8042528,44.7946627 60.0775775,45.584 C58.3509022,46.3733373 56.9202498,47.3353277 55.7855775,48.47 L51.1975775,43.068 C53.2202543,41.193324 55.551231,39.787338 58.1905775,38.85 C60.829924,37.912662 63.5062306,37.444 66.2195775,37.444 C69.3769266,37.444 71.9792339,37.8879956 74.0265775,38.776 C76.0739211,39.6640044 77.6895716,40.8233262 78.8735775,42.254 C80.0575834,43.6846738 80.8839085,45.2879911 81.3525775,47.064 C81.8212465,48.8400089 82.0555775,50.6159911 82.0555775,52.392 L82.0555775,74 L73.7675775,74 L73.7675775,69.486 Z M73.6195775,57.794 L71.6215775,57.794 C70.1909037,57.794 68.686252,57.855666 67.1075775,57.979 C65.5289029,58.1023339 64.0735841,58.3736646 62.7415775,58.793 C61.4095708,59.2123354 60.2995819,59.8043295 59.4115775,60.569 C58.523573,61.3336705 58.0795775,62.3819933 58.0795775,63.714 C58.0795775,64.5526709 58.2645756,65.2556638 58.6345775,65.823 C59.0045793,66.3903362 59.4855745,66.8466649 60.0775775,67.192 C60.6695804,67.5373351 61.3355738,67.7839993 62.0755775,67.932 C62.8155812,68.0800007 63.5555738,68.154 64.2955775,68.154 C67.3542594,68.154 69.6729029,67.3400081 71.2515775,65.712 C72.830252,64.0839919 73.6195775,61.8640141 73.6195775,59.052 L73.6195775,57.794 Z M87.299155,45.584 L87.299155,38.48 L93.515155,38.48 L93.515155,28.194 L102.247155,28.194 L102.247155,38.48 L111.127155,38.48 L111.127155,45.584 L102.247155,45.584 L102.247155,62.086 C102.247155,63.6646746 102.530819,64.9719948 103.098155,66.008 C103.665491,67.0440052 104.935812,67.562 106.909155,67.562 C107.501158,67.562 108.142485,67.5003339 108.833155,67.377 C109.523825,67.253666 110.140486,67.0686679 110.683155,66.822 L110.979155,73.778 C110.189818,74.0740015 109.252494,74.3083325 108.167155,74.481 C107.081816,74.6536675 106.045827,74.74 105.059155,74.74 C102.691143,74.74 100.767162,74.4070033 99.287155,73.741 C97.8071476,73.0749967 96.6354926,72.1623391 95.772155,71.003 C94.9088173,69.8436609 94.3168232,68.5116742 93.996155,67.007 C93.6754867,65.5023258 93.515155,63.8866753 93.515155,62.16 L93.515155,45.584 L87.299155,45.584 Z M143.306732,52.688 C143.306732,51.5533277 143.146401,50.4680052 142.825732,49.432 C142.505064,48.3959948 141.999403,47.4833373 141.308732,46.694 C140.618062,45.9046627 139.742404,45.275669 138.681732,44.807 C137.62106,44.338331 136.375406,44.104 134.944732,44.104 C132.280719,44.104 130.023742,44.9056587 128.173732,46.509 C126.323723,48.1123414 125.300067,50.1719874 125.102732,52.688 L143.306732,52.688 Z M152.186732,56.684 L152.186732,57.868 C152.186732,58.2626686 152.162066,58.6573314 152.112732,59.052 L125.102732,59.052 C125.2014,60.3346731 125.534396,61.506328 126.101732,62.567 C126.669069,63.627672 127.421394,64.5403295 128.358732,65.305 C129.29607,66.0696705 130.356727,66.6739978 131.540732,67.118 C132.724738,67.5620022 133.958059,67.784 135.240732,67.784 C137.460744,67.784 139.335391,67.3770041 140.864732,66.563 C142.394073,65.7489959 143.652061,64.6266738 144.638732,63.196 L150.558732,67.932 C147.056048,72.6680237 141.974766,75.036 135.314732,75.036 C132.552052,75.036 130.011411,74.6043376 127.692732,73.741 C125.374054,72.8776623 123.363741,71.6566746 121.661732,70.078 C119.959724,68.4993254 118.627737,66.5630115 117.665732,64.269 C116.703728,61.9749885 116.222732,59.3726812 116.222732,56.462 C116.222732,53.6006524 116.703728,50.998345 117.665732,48.655 C118.627737,46.3116549 119.947391,44.3136749 121.624732,42.661 C123.302074,41.0083251 125.287721,39.7256712 127.581732,38.813 C129.875744,37.9003288 132.354719,37.444 135.018732,37.444 C137.485411,37.444 139.767055,37.8509959 141.863732,38.665 C143.96041,39.4790041 145.773391,40.6876587 147.302732,42.291 C148.832073,43.8943414 150.028395,45.8923214 150.891732,48.285 C151.75507,50.6776786 152.186732,53.4773173 152.186732,56.684 Z M196.269887,21.608 L204.335887,21.608 L226.905887,74 L216.249887,74 L211.365887,62.012 L188.647887,62.012 L183.911887,74 L173.477887,74 L196.269887,21.608 Z M208.109887,54.02 L200.043887,32.708 L191.829887,54.02 L208.109887,54.02 Z M240.881465,38.48 L240.881465,43.438 L241.103465,43.438 C241.547467,42.7473299 242.127128,42.0443369 242.842465,41.329 C243.557802,40.6136631 244.43346,39.9723362 245.469465,39.405 C246.50547,38.8376638 247.677125,38.3690019 248.984465,37.999 C250.291805,37.6289982 251.759457,37.444 253.387465,37.444 C255.903477,37.444 258.222121,37.9249952 260.343465,38.887 C262.464809,39.8490048 264.290124,41.1686583 265.819465,42.846 C267.348806,44.5233417 268.532794,46.4966553 269.371465,48.766 C270.210136,51.0353447 270.629465,53.4773203 270.629465,56.092 C270.629465,58.7066797 270.222469,61.1609885 269.408465,63.455 C268.594461,65.7490115 267.435139,67.7469915 265.930465,69.449 C264.425791,71.1510085 262.600476,72.5076616 260.454465,73.519 C258.308454,74.5303384 255.878812,75.036 253.165465,75.036 C250.649452,75.036 248.343142,74.5180052 246.246465,73.482 C244.149788,72.4459948 242.534137,71.0400089 241.399465,69.264 L241.251465,69.264 L241.251465,91.76 L232.371465,91.76 L232.371465,38.48 L240.881465,38.48 Z M261.601465,56.092 C261.601465,54.7106598 261.3918,53.3416735 260.972465,51.985 C260.553129,50.6283266 259.924136,49.4073388 259.085465,48.322 C258.246794,47.2366612 257.186138,46.3610033 255.903465,45.695 C254.620792,45.0289967 253.11614,44.696 251.389465,44.696 C249.761457,44.696 248.306138,45.0413299 247.023465,45.732 C245.740792,46.4226701 244.643136,47.3106612 243.730465,48.396 C242.817794,49.4813388 242.127134,50.7146598 241.658465,52.096 C241.189796,53.4773402 240.955465,54.8586598 240.955465,56.24 C240.955465,57.6213402 241.189796,58.9903265 241.658465,60.347 C242.127134,61.7036734 242.817794,62.9246612 243.730465,64.01 C244.643136,65.0953388 245.740792,65.9709967 247.023465,66.637 C248.306138,67.3030033 249.761457,67.636 251.389465,67.636 C253.11614,67.636 254.620792,67.2906701 255.903465,66.6 C257.186138,65.9093299 258.246794,65.0213388 259.085465,63.936 C259.924136,62.8506612 260.553129,61.6173402 260.972465,60.236 C261.3918,58.8546598 261.601465,57.4733402 261.601465,56.092 Z M288.453042,38.48 L288.453042,43.438 L288.675042,43.438 C289.119045,42.7473299 289.698705,42.0443369 290.414042,41.329 C291.129379,40.6136631 292.005037,39.9723362 293.041042,39.405 C294.077048,38.8376638 295.248703,38.3690019 296.556042,37.999 C297.863382,37.6289982 299.331034,37.444 300.959042,37.444 C303.475055,37.444 305.793698,37.9249952 307.915042,38.887 C310.036386,39.8490048 311.861701,41.1686583 313.391042,42.846 C314.920383,44.5233417 316.104372,46.4966553 316.943042,48.766 C317.781713,51.0353447 318.201042,53.4773203 318.201042,56.092 C318.201042,58.7066797 317.794046,61.1609885 316.980042,63.455 C316.166038,65.7490115 315.006717,67.7469915 313.502042,69.449 C311.997368,71.1510085 310.172053,72.5076616 308.026042,73.519 C305.880032,74.5303384 303.450389,75.036 300.737042,75.036 C298.22103,75.036 295.91472,74.5180052 293.818042,73.482 C291.721365,72.4459948 290.105715,71.0400089 288.971042,69.264 L288.823042,69.264 L288.823042,91.76 L279.943042,91.76 L279.943042,38.48 L288.453042,38.48 Z M309.173042,56.092 C309.173042,54.7106598 308.963378,53.3416735 308.544042,51.985 C308.124707,50.6283266 307.495713,49.4073388 306.657042,48.322 C305.818372,47.2366612 304.757715,46.3610033 303.475042,45.695 C302.192369,45.0289967 300.687718,44.696 298.961042,44.696 C297.333034,44.696 295.877715,45.0413299 294.595042,45.732 C293.312369,46.4226701 292.214714,47.3106612 291.302042,48.396 C290.389371,49.4813388 289.698711,50.7146598 289.230042,52.096 C288.761373,53.4773402 288.527042,54.8586598 288.527042,56.24 C288.527042,57.6213402 288.761373,58.9903265 289.230042,60.347 C289.698711,61.7036734 290.389371,62.9246612 291.302042,64.01 C292.214714,65.0953388 293.312369,65.9709967 294.595042,66.637 C295.877715,67.3030033 297.333034,67.636 298.961042,67.636 C300.687718,67.636 302.192369,67.2906701 303.475042,66.6 C304.757715,65.9093299 305.818372,65.0213388 306.657042,63.936 C307.495713,62.8506612 308.124707,61.6173402 308.544042,60.236 C308.963378,58.8546598 309.173042,57.4733402 309.173042,56.092 Z" id="Rate-App" fill="#00A3E8"></path>
                    </g>
                </g>
            </g>
            <g id="stars" transform="translate(481.000000, 71.000000)">
                <path d="M92.6759295,100.539353 L90.1685823,85.9221498 L108.343326,68.2067703 C109.114652,67.4550564 109.391986,66.3307033 109.058879,65.3068648 C108.726078,64.2827197 107.841059,63.5365219 106.775851,63.3814599 L81.6591692,59.7322921 L70.4266704,36.9727992 C69.9504522,36.0074919 68.9670646,35.3961307 67.8905172,35.3961307 C66.8136634,35.3961307 65.8302758,36.0074919 65.3540576,36.9727992 L54.1215587,59.7322921 L29.0054904,63.3814599 C27.9402815,63.5365219 27.0546504,64.2827197 26.7221557,65.3068648 C26.3893546,66.3307033 26.6666889,67.4550564 27.4377089,68.2067703 L45.6124521,85.9221498 L41.3212784,110.936478 C41.1398619,111.997703 41.5759357,113.070267 42.4471637,113.703079 C43.3180854,114.335892 44.4730831,114.419552 45.4261325,113.918511 L67.8905172,102.10836 L90.3545955,113.918511 C90.768605,114.136395 91.2203075,114.243345 91.6710907,114.243345 C92.2570169,114.243345 92.8407979,114.061009 93.3338707,113.703079 C94.2057117,113.070267 94.6411725,111.997397 94.4600625,110.936478 L92.6759295,100.539353" id="Fill-1" fill="#00A3E8"></path>
                <path d="M44.6649188,13.5568973 C44.5175179,13.1030497 44.1249596,12.7723937 43.6533381,12.7040561 L32.5265634,11.0869366 L27.5501748,1.00483886 C27.339033,0.576732765 26.9035722,0.306140293 26.4264346,0.306140293 C25.949297,0.306140293 25.5138362,0.576732765 25.3026944,1.00483886 L20.3266123,11.0869366 L9.19953113,12.7040561 C8.72760315,12.7727001 8.33504488,13.1030497 8.187644,13.5568973 C8.04085601,14.0101321 8.16343471,14.508108 8.50481637,14.8412156 L16.556398,22.6890102 L14.6555089,33.7716565 C14.5752198,34.2417458 14.7679748,34.7164318 15.1540977,34.997137 C15.5399142,35.2775358 16.0519867,35.3146159 16.4739638,35.092442 L26.4261282,29.8604768 L36.3779861,35.092442 C36.5615477,35.1886663 36.7619638,35.2364719 36.9614606,35.2364719 C37.221021,35.2364719 37.4799685,35.15557 37.6981586,34.997137 C38.0839751,34.7167383 38.2773429,34.2417458 38.1970539,33.7716565 L36.2961648,22.6890102 L44.3477464,14.8415221 C44.6891281,14.508108 44.8123197,14.0104385 44.6649188,13.5568973" id="Fill-2" fill="#00A3E8"></path>
                <path d="M81.554058,140.964887 C81.4437372,140.625345 81.1495483,140.377429 80.7962152,140.325946 L72.460251,139.114869 L68.73202,131.561569 C68.5748128,131.241026 68.2481406,131.038158 67.8905172,131.038158 C67.5332003,131.038158 67.207141,131.241026 67.0490145,131.561569 L63.3210899,139.114869 L54.9851257,140.325946 C54.6317926,140.377429 54.3372973,140.625345 54.2269764,140.964887 C54.1166556,141.304737 54.2088961,141.677989 54.4647791,141.927743 L60.4971832,147.80723 L59.0725123,156.108872 C59.0127552,156.46098 59.1570916,156.817071 59.4460709,157.027293 C59.7353566,157.237516 60.1187214,157.26479 60.4349745,157.098695 L67.8902108,153.178322 L75.3463664,157.098695 C75.4833481,157.170404 75.6338134,157.205952 75.7827466,157.205952 C75.9767273,157.205952 76.1719339,157.145888 76.3343507,157.026987 C76.6236364,156.816764 76.7682793,156.460673 76.7088286,156.108566 L75.2838513,147.806924 L81.3162553,141.927437 C81.5727513,141.677989 81.6643788,141.304737 81.554058,140.964887" id="Fill-4" fill="#00A3E8"></path>
                <path d="M44.1102502,114.243345 C43.5237111,114.243345 42.9399301,114.061009 42.4471637,113.703079 C41.7018853,113.161894 41.275005,112.298634 41.2808274,111.396148 C41.2817468,111.243844 41.2952304,111.090314 41.3212784,110.936784 L45.6124521,85.9224563 L45.6124521,85.9221498 L27.4377089,68.2067703 C26.8805887,67.6637466 26.5814967,66.9258229 26.5836418,66.1719639 C26.5845611,65.8826782 26.6296088,65.5909409 26.7221557,65.3071712 C27.0546504,64.2830262 27.9402815,63.5368284 29.0054904,63.3817663 L36.0332335,62.3606858 C36.0050404,62.4284105 35.9734764,62.4939901 35.9504929,62.5644729 C35.6179981,63.5886179 35.8953324,64.712971 36.6663524,65.4646848 L54.8410957,83.1800644 L50.549922,108.194392 C50.385973,109.151119 50.7285804,110.114281 51.4355531,110.759045 L45.4261325,113.918511 C45.0124294,114.136088 44.5604205,114.243345 44.1102502,114.243345" id="Fill-7" fill="#1094CB"></path>
                <path d="M15.8907957,35.2364719 C15.6312353,35.2364719 15.3722878,35.1558765 15.1540977,34.997137 C14.8268126,34.7593344 14.6383479,34.381792 14.637735,33.9861692 C14.6374285,33.9150736 14.643251,33.8433651 14.6555089,33.7716565 L16.556398,22.6890102 L8.50481637,14.8412156 C8.45701068,14.7943293 8.4131888,14.744072 8.37396362,14.6913632 C8.13432227,14.3689812 8.06138794,13.9463911 8.18795045,13.5568973 C8.33504488,13.1030497 8.72760315,12.7727001 9.19953113,12.7040561 L17.3954492,11.513204 C17.4515289,11.7313941 17.5658336,11.9354876 17.7337664,12.0988237 L25.785348,19.9469248 L23.8844589,31.0295711 C23.8746526,31.0884089 23.8688301,31.1472467 23.866685,31.2060844 L16.4739638,35.092442 C16.2907087,35.1889727 16.0902925,35.2364719 15.8907957,35.2364719" id="Fill-8" fill="#1094CB"></path>
                <path d="M59.997675,157.206565 C59.8030813,157.206565 59.6097134,157.146195 59.4460709,157.027293 C59.1908007,156.841587 59.0486094,156.542495 59.059948,156.232677 C59.0614802,156.191613 59.0657704,156.150549 59.0725123,156.109485 L60.4971832,147.807843 L60.4971832,147.80723 L54.4647791,141.927743 C54.2750886,141.742649 54.1751869,141.489524 54.1813159,141.232415 C54.183461,141.143239 54.1984769,141.053144 54.2269764,140.965807 C54.3372973,140.625957 54.6317926,140.378042 54.9851257,140.326559 L63.3210899,139.115481 L63.4684908,138.816696 C63.5150707,138.952758 63.5864728,139.081159 63.6934227,139.185351 L69.7255203,145.065145 L68.3011559,153.366787 L68.3002365,153.394061 L67.8902108,153.178322 L60.4349745,157.098695 C60.2973799,157.17071 60.147221,157.206565 59.997675,157.206565" id="Fill-10" fill="#1094CB"></path>
                <path d="M127.651615,84.5321074 C132.182124,84.5321074 135.855195,88.2048716 135.855195,92.7356867 C135.855195,97.2661953 132.182124,100.939266 127.651615,100.939266 C123.1208,100.939266 119.448036,97.2661953 119.448036,92.7356867 C119.448036,88.2048716 123.1208,84.5321074 127.651615,84.5321074" id="Fill-11" fill="#00A3E8"></path>
                <path d="M8.20357923,97.8263799 C12.7343943,97.8263799 16.4071585,101.499144 16.4071585,106.029959 C16.4071585,110.560468 12.7343943,114.233538 8.20357923,114.233538 C3.67276418,114.233538 0,110.560468 0,106.029959 C0,101.499144 3.67276418,97.8263799 8.20357923,97.8263799" id="Fill-12" fill="#00A3E8"></path>
                <path d="M127.651615,100.939266 C123.1208,100.939266 119.448036,97.2661953 119.448036,92.7356867 C119.448036,92.1031806 119.519438,91.4878355 119.654888,90.8963933 C120.490568,87.2521287 123.753306,84.5336397 127.651309,84.5336397 C128.613552,84.5336397 129.535956,84.7006531 130.393701,85.0046483 C127.211558,86.1332917 124.93282,89.1680337 124.93282,92.7369124 C124.93282,96.3057912 127.212171,99.3405332 130.393701,100.469483 C130.303299,100.50166 130.212284,100.531998 130.12035,100.561111 C130.119737,100.561111 130.119431,100.561417 130.118818,100.561724 C130.117592,100.56203 130.11606,100.562643 130.114528,100.562949 C129.337072,100.807187 128.509666,100.939266 127.651615,100.939266" id="Fill-14" fill="#1094CB"></path>
                <path d="M8.20357923,114.232006 C3.67276418,114.232006 0.00030644674,110.559548 0,106.029346 C0.00030644674,101.498838 3.67307063,97.8263799 8.20357923,97.8263799 C8.93414826,97.8263799 9.64234667,97.9219913 10.3165295,98.1012626 C10.5301229,98.1579553 10.7400389,98.2232284 10.9459711,98.2964692 C7.7641346,99.4248061 5.4850902,102.459855 5.4850902,106.028427 C5.4850902,109.597306 7.76444105,112.632048 10.9459711,113.760691 C10.0882267,114.064993 9.16551555,114.232006 8.20357923,114.232006" id="Fill-16" fill="#1094CB"></path>
                <path d="M106.660933,23.7817993 C109.824996,23.7817993 112.389648,26.346452 112.389648,29.5105146 C112.389648,32.6742708 109.824996,35.23923 106.660933,35.23923 C103.497177,35.23923 100.932218,32.6742708 100.932218,29.5105146 C100.932218,26.346452 103.497177,23.7817993 106.660933,23.7817993" id="Fill-17" fill="#00A3E8"></path>
                <path d="M119.448036,127.900757 C122.612099,127.900757 125.177058,130.465716 125.177058,133.629778 C125.177058,136.793841 122.612099,139.359107 119.448036,139.359107 C116.283974,139.359107 113.719014,136.793841 113.719014,133.629778 C113.719014,130.465716 116.283974,127.900757 119.448036,127.900757" id="Fill-18" fill="#00A3E8"></path>
            </g>
        </g>
    </g>
</svg>